<svg width="166" height="117" viewBox="0 0 166 117" fill="none" xmlns="http://www.w3.org/2000/svg">
    <g clipPath="url(#clip0_3406_1704)">
        <g filter="url(#filter0_d_3406_1704)">
            <path
                d="M149.825 54.3697L122.871 88.6473C122.465 89.1612 121.719 89.2508 121.202 88.8479L89.2281 63.7913C88.7138 63.3853 88.6241 62.6411 89.0272 62.1249L120.654 21.9026C121.06 21.3887 121.806 21.2991 122.323 21.702L148.339 42.0901L148.815 46.041L149.325 50.2629L149.825 54.3697Z"
                fill="black" />
        </g>
        <path
            d="M149.825 54.3697L122.871 88.6473C122.465 89.1612 121.719 89.2508 121.202 88.8479L89.2281 63.7913C88.7138 63.3853 88.6241 62.6411 89.0272 62.1249L120.654 21.9026C121.06 21.3887 121.806 21.2991 122.323 21.702L148.339 42.0901L148.815 46.041L149.325 50.2629L149.825 54.3697Z"
            fill="white" />
        <path d="M144.05 49.4999C144.076 49.7144 143.605 50.7029 149.909 56.0999L150.65 55.1999L144.05 49.4999Z"
            fill="#CECECE" />
        <path
            d="M144.441 48.0148C143.816 48.8186 143.955 49.9799 144.751 50.6117L150.65 55.2749L149.071 42.075L144.441 48.0148Z"
            fill="#EDEDED" />
        <path
            d="M107.827 67.5832C107.956 67.3912 107.827 67.14 107.569 67.16C107.221 67.1935 106.87 67.1915 106.523 67.1541L106.049 67.0514C105.713 67.0125 105.647 66.8296 105.852 66.5026C106.218 66.4583 106.149 65.956 105.784 65.9811C105.334 66.0121 104.734 66.0594 104.364 65.7529C104.25 65.6477 104.154 65.5269 104.079 65.3947C104.209 65.39 104.337 65.3729 104.463 65.3437C104.567 65.3186 104.616 65.2196 104.64 65.1354C104.71 64.8976 104.702 64.7063 104.72 64.5231C106.355 64.2572 108.052 63.6434 109.285 62.7711C109.525 62.6019 109.357 62.2924 109.081 62.2991C107.794 62.3323 106.47 62.5665 105.313 63.1116C104.904 63.3029 104.503 63.5392 104.297 63.9336C104.278 63.9747 104.262 64.0166 104.248 64.0592C103.87 64.1106 103.49 64.1402 103.109 64.1479C102.6 64.1617 102.093 64.1001 101.606 63.9654C101.256 63.8627 100.725 63.7135 100.725 63.328C101.632 63.4114 102.519 63.2733 102.69 62.4978C102.945 61.3307 100.915 62.0317 100.292 62.7511C99.8726 62.6791 99.4616 62.5693 99.0653 62.4232C98.725 62.3013 98.5047 62.7851 98.8459 62.9077C99.2489 63.0481 99.6635 63.1585 100.086 63.2379C99.9574 64.4935 102.402 64.6996 103.301 64.6708C103.568 64.6619 103.844 64.6405 104.122 64.6095C104.089 64.9168 104.122 64.885 103.634 64.8784C103.387 64.8784 103.226 65.0926 103.366 65.2949C103.624 65.6687 103.836 66.1229 104.272 66.3408C104.41 66.4056 104.557 66.4516 104.709 66.4775C104.672 66.5413 104.666 66.6162 104.692 66.6843C105.04 67.4835 106.094 67.6859 107.001 67.7006C106.368 68.3104 105.518 68.6889 104.607 68.7665C103.22 68.8669 102.212 67.9754 101.32 67.1223C101.069 66.8822 100.609 67.1917 100.862 67.434C101.835 68.3647 102.909 69.3145 104.404 69.2998C105.71 69.2835 107.134 68.6114 107.827 67.5832ZM101.661 62.4438C102.221 62.4187 101.6 62.7496 101.384 62.7873C101.245 62.8093 101.103 62.8172 100.962 62.8109C101.079 62.6758 101.503 62.4512 101.66 62.4416L101.661 62.4438ZM105.158 63.797C105.498 63.5193 106.095 63.3538 106.526 63.2216C107.006 63.077 107.499 62.9731 107.999 62.9114C107.064 63.3846 106.057 63.7285 105.013 63.9322C105.058 63.8848 105.107 63.8396 105.157 63.797H105.158Z"
            fill="#4684AF" />
        <path
            d="M128.079 34.5242L140.761 44.4787C141.253 44.8652 141.339 45.5777 140.953 46.0701C140.566 46.5625 139.854 46.6483 139.361 46.2618L126.68 36.3074C126.187 35.9209 126.101 35.2084 126.488 34.716C126.874 34.2236 127.587 34.1377 128.079 34.5242Z"
            fill="#D2D4D8" />
        <path
            d="M140.973 55.2439L116.879 35.6646C116.818 35.6146 116.807 35.523 116.855 35.4594L118.052 33.8807C118.101 33.8175 118.189 33.8064 118.251 33.8559L142.347 53.4327C142.408 53.4829 142.418 53.5746 142.37 53.638L141.172 55.2174C141.149 55.2485 141.115 55.2688 141.078 55.2738C141.04 55.2787 141.002 55.268 140.973 55.2439Z"
            fill="#D2D4D8" />
        <path
            d="M138.499 59.368L114.404 39.7895C114.343 39.7395 114.332 39.6479 114.38 39.5842L115.577 38.0057C115.626 37.9425 115.714 37.9314 115.776 37.9809L139.871 57.561C139.932 57.611 139.943 57.7027 139.895 57.7663L138.698 59.3456C138.648 59.4082 138.56 59.4182 138.499 59.368Z"
            fill="#D2D4D8" />
        <path
            d="M135.2 62.6694L111.104 43.0896C111.043 43.0399 111.032 42.9485 111.08 42.8851L112.278 41.3057C112.326 41.2425 112.415 41.2314 112.476 41.2809L136.571 60.8607C136.6 60.8844 136.62 60.9193 136.624 60.9577C136.629 60.9961 136.618 61.0348 136.595 61.0651L135.397 62.6445C135.349 62.7073 135.261 62.7184 135.2 62.6694Z"
            fill="#D2D4D8" />
        <path
            d="M132.727 65.9702L108.629 46.3904C108.568 46.3405 108.557 46.2488 108.605 46.1852L109.803 44.6057C109.851 44.5424 109.939 44.5314 110.001 44.5809L134.097 64.1614C134.157 64.2113 134.168 64.3024 134.121 64.3659L132.922 65.9454C132.874 66.007 132.788 66.018 132.727 65.9702Z"
            fill="#D2D4D8" />
        <path
            d="M130.249 70.9193L106.154 51.3398C106.093 51.2899 106.082 51.1982 106.13 51.1346L107.327 49.5552C107.376 49.4922 107.464 49.4815 107.526 49.5312L131.622 69.1098C131.682 69.16 131.693 69.2517 131.645 69.3151L130.447 70.8937C130.399 70.9572 130.311 70.9686 130.249 70.9193Z"
            fill="#D2D4D8" />
        <path
            d="M127.774 73.3937L103.678 53.8146C103.618 53.7644 103.607 53.6728 103.655 53.6093L104.853 52.0307C104.901 51.9675 104.989 51.9564 105.051 52.0059L129.146 71.585C129.207 71.635 129.218 71.7266 129.17 71.7902L127.973 73.3696C127.924 73.4327 127.836 73.4434 127.774 73.3937Z"
            fill="#D2D4D8" />
        <path
            d="M114.946 79.2346C113.765 78.3076 113.258 76.7602 113.662 75.3138C114.066 73.8674 115.302 72.8069 116.792 72.6268C118.283 72.4467 119.736 73.1825 120.472 74.4911C121.209 75.7996 121.085 77.4233 120.158 78.6049C118.892 80.2165 116.56 80.4982 114.946 79.2346ZM119.035 74.0256C117.772 73.0326 115.943 73.2519 114.95 74.5154C113.957 75.7789 114.176 77.6083 115.44 78.6013C116.703 79.5944 118.532 79.3751 119.525 78.1116C120.516 76.8476 120.297 75.0195 119.035 74.0256Z"
            fill="#D2D4D8" />
        <g filter="url(#filter1_d_3406_1704)">
            <path
                d="M80.4163 61.8004L44.5465 86.5832C44.4355 86.6588 44.2857 86.6289 44.2107 86.5163L14.5661 41.6696C14.4918 41.5565 14.5211 41.4033 14.6316 41.3271L50.5038 16.542C50.6144 16.4659 50.7643 16.4959 50.8388 16.6089L80.4833 61.4555C80.5196 61.5102 80.533 61.5775 80.5204 61.6423C80.5078 61.7071 80.4703 61.7641 80.4163 61.8004Z"
                fill="black" />
        </g>
        <path
            d="M80.4163 61.8004L44.5465 86.5832C44.4355 86.6588 44.2857 86.6289 44.2107 86.5163L14.5661 41.6696C14.4918 41.5565 14.5211 41.4033 14.6316 41.3271L50.5038 16.542C50.6144 16.4659 50.7643 16.4959 50.8388 16.6089L80.4833 61.4555C80.5196 61.5102 80.533 61.5775 80.5204 61.6423C80.5078 61.7071 80.4703 61.7641 80.4163 61.8004Z"
            fill="white" />
        <path
            d="M34.2561 35.2377L22.5863 43.696C22.514 43.7482 22.4159 43.7278 22.367 43.6505L21.152 41.7225C21.1033 41.6449 21.1223 41.5397 21.1944 41.4872L32.8642 33.0289C32.9365 32.9767 33.0346 32.997 33.0836 33.0744L34.2978 35.0024C34.3466 35.0798 34.328 35.1849 34.2561 35.2377Z"
            fill="#D2D4D8" />
        <path
            d="M54.0522 29.3496L25.1054 48.6478C25.0306 48.6969 24.9298 48.6776 24.8791 48.6046L23.628 46.7745C23.5777 46.7011 23.5969 46.6013 23.6711 46.5513L52.6187 27.2538C52.6541 27.2291 52.6981 27.2197 52.7406 27.2277C52.7832 27.2357 52.8206 27.2605 52.8442 27.2963L54.0977 29.1263C54.1475 29.2004 54.1272 29.3003 54.0522 29.3496Z"
            fill="#D2D4D8" />
        <path
            d="M57.3534 34.2992L28.4083 53.5963C28.3728 53.6209 28.3287 53.6302 28.2862 53.622C28.2436 53.6139 28.2063 53.589 28.1828 53.5531L26.9294 51.7239C26.9042 51.6889 26.8947 51.6452 26.9029 51.603C26.9112 51.5609 26.9366 51.5239 26.9732 51.5007L55.9184 32.2035C55.9538 32.1789 55.9979 32.1697 56.0404 32.1778C56.083 32.186 56.1203 32.2109 56.1439 32.2468L57.3972 34.076C57.4474 34.1496 57.4278 34.2494 57.3534 34.2992Z"
            fill="#D2D4D8" />
        <path
            d="M61.4794 39.2481L32.5316 58.5463C32.4962 58.5709 32.4521 58.5802 32.4096 58.572C32.367 58.5639 32.3297 58.539 32.3062 58.5031L31.0528 56.6738C31.0027 56.6002 31.0222 56.5004 31.0967 56.4506L60.0412 37.1524C60.1158 37.1029 60.217 37.1222 60.2675 37.1956L61.52 39.0257C61.5452 39.0603 61.5552 39.1035 61.5475 39.1454C61.5398 39.1873 61.5152 39.2244 61.4794 39.2481Z"
            fill="#D2D4D8" />
        <path
            d="M63.9537 43.3747L35.0086 62.6725C34.934 62.722 34.8329 62.7027 34.7824 62.6293L33.529 60.7992C33.5041 60.7643 33.4947 60.7208 33.5029 60.6788C33.5112 60.6368 33.5364 60.6 33.5728 60.5768L62.5179 41.2789C62.5534 41.2541 62.5976 41.2446 62.6404 41.2528C62.6831 41.261 62.7206 41.286 62.7442 41.3222L63.9975 43.1514C64.0472 43.2251 64.0277 43.3246 63.9537 43.3747Z"
            fill="#D2D4D8" />
        <path
            d="M67.2546 48.3623L46.5334 62.672C46.46 62.7224 46.3606 62.7028 46.3109 62.628L45.0786 60.7642C45.0541 60.7286 45.0448 60.6843 45.0529 60.6416C45.0611 60.5988 45.0859 60.5613 45.1217 60.5376L65.8429 46.2279C65.9162 46.1775 66.0157 46.1972 66.0654 46.2719L67.2977 48.1349C67.347 48.2099 67.3278 48.3115 67.2546 48.3623Z"
            fill="#D2D4D8" />
        <path
            d="M70.5529 53.2714L41.6074 72.5723C41.533 72.6219 41.4319 72.603 41.3812 72.5298L40.1278 70.6996C40.0776 70.626 40.0972 70.5262 40.1716 70.4764L69.1171 51.1771C69.1918 51.128 69.2926 51.1473 69.3434 51.2203L70.5967 53.0505C70.6211 53.0853 70.6303 53.1285 70.622 53.17C70.6138 53.2116 70.5888 53.2482 70.5529 53.2714Z"
            fill="#D2D4D8" />
        <path
            d="M73.8538 58.2225L44.9082 77.5225C44.8335 77.572 44.7324 77.5527 44.6819 77.4793L43.4293 75.6498C43.4043 75.6149 43.3947 75.5715 43.4028 75.5296C43.411 75.4876 43.436 75.4507 43.4723 75.4273L72.4179 56.1274C72.4926 56.0779 72.5937 56.0972 72.6442 56.1706L73.8976 58.0001C73.9472 58.0735 73.9277 58.1728 73.8538 58.2225Z"
            fill="#D2D4D8" />
        <g filter="url(#filter2_d_3406_1704)">
            <path
                d="M51.834 62.6956C51.6769 62.723 51.5271 62.6187 51.4984 62.462L41.7544 8.25831C41.7269 8.10138 41.8313 7.95167 41.9882 7.92307L86.1167 0.00422865C86.2734 -0.0228222 86.4228 0.0808356 86.4522 0.236995L96.1954 54.4415C96.2234 54.5982 96.1193 54.7481 95.9625 54.7767L51.834 62.6956Z"
                fill="black" />
        </g>
        <path
            d="M51.834 62.6956C51.6769 62.723 51.5271 62.6187 51.4984 62.462L41.7544 8.25831C41.7269 8.10138 41.8313 7.95167 41.9882 7.92307L86.1167 0.00422865C86.2734 -0.0228222 86.4228 0.0808356 86.4522 0.236995L96.1954 54.4415C96.2234 54.5982 96.1193 54.7481 95.9625 54.7767L51.834 62.6956Z"
            fill="white" />
        <path d="M56.8414 31.631L62.1663 30.6748L64.8717 45.741L59.5469 46.6972L56.8414 31.631Z" fill="#D2D4D8" />
        <path d="M63.9307 34.549L69.2555 33.5928L71.2317 44.598L65.9068 45.5542L63.9307 34.549Z" fill="#D2D4D8" />
        <path d="M70.8011 36.6765L76.126 35.7203L77.5178 43.4708L72.1929 44.427L70.8011 36.6765Z" fill="#D2D4D8" />
        <path d="M76.1025 30.3804L81.4274 29.4242L83.7488 42.3518L78.4239 43.308L76.1025 30.3804Z" fill="#D2D4D8" />
        <path
            d="M69.686 13.6151L48.027 17.3232C47.9519 17.3348 47.8808 17.287 47.867 17.2156L47.5268 15.4123C47.5147 15.3407 47.5648 15.2729 47.6397 15.2598L69.2987 11.5517C69.3738 11.5401 69.4449 11.5879 69.4587 11.6592L69.7981 13.4618C69.8107 13.5334 69.7609 13.6016 69.686 13.6151Z"
            fill="#D2D4D8" />
        <path
            d="M79.5877 16.0566L48.0199 21.4482C47.9458 21.4596 47.8757 21.4126 47.8621 21.3424L47.5267 19.569C47.5152 19.4986 47.5644 19.4322 47.638 19.4189L79.2058 14.0265C79.2798 14.0156 79.3496 14.0624 79.3636 14.1323L79.6982 15.9065C79.7102 15.9768 79.6612 16.0433 79.5877 16.0566Z"
            fill="#D2D4D8" />
        <path
            d="M85.3647 18.5661L49.6707 24.7483C49.5965 24.7595 49.5265 24.7119 49.5124 24.6407L49.1768 22.8364C49.1648 22.7647 49.2144 22.6969 49.2884 22.6838L84.9785 16.5016C85.0527 16.4904 85.1227 16.538 85.1368 16.6092L85.4732 18.4127C85.4854 18.4836 85.4376 18.5512 85.3647 18.5661Z"
            fill="#D2D4D8" />
        <path
            d="M55.3284 50.6916L78.5946 46.5138C79.1854 46.4077 79.7504 46.8006 79.8564 47.3914C79.9625 47.9822 79.5696 48.5471 78.9788 48.6532L55.7126 52.8311C55.1218 52.9372 54.5568 52.5442 54.4508 51.9534C54.3447 51.3627 54.7376 50.7977 55.3284 50.6916Z"
            fill="#D2D4D8" />
        <path
            d="M91.1397 51.5661L55.4457 57.7483C55.3715 57.7595 55.3015 57.7119 55.2874 57.6407L54.9519 55.8364C54.9399 55.7647 54.9894 55.6969 55.0635 55.6838L90.7535 49.5016C90.8277 49.4904 90.8978 49.538 90.9118 49.6092L91.2482 51.4127C91.2604 51.4836 91.2126 51.5512 91.1397 51.5661Z"
            fill="#D2D4D8" />
        <path
            d="M68.8575 26.7089L50.5005 29.6983C50.4256 29.7093 50.3547 29.664 50.3409 29.5963L50.0017 27.8863C49.99 27.8184 50.0398 27.7544 50.1142 27.7416L68.4752 24.7515C68.5501 24.7409 68.6207 24.786 68.6349 24.8535L68.9733 26.5642C68.9852 26.6331 68.9335 26.6978 68.8575 26.7089Z"
            fill="#D2D4D8" />
        <path
            d="M86.1867 23.5706L70.2953 26.3983C70.2212 26.4097 70.1512 26.3609 70.1372 26.2878L69.802 24.4361C69.7895 24.3625 69.8392 24.2926 69.9134 24.2795L85.8048 21.4517C85.879 21.4398 85.9493 21.4889 85.9629 21.5622L86.2981 23.4131C86.3106 23.487 86.261 23.557 86.1867 23.5706Z"
            fill="#D2D4D8" />
        <path
            d="M71.8067 10.3027L82.5808 8.36803C83.1716 8.26194 83.7365 8.65487 83.8426 9.24566C83.9487 9.83645 83.5558 10.4014 82.965 10.5075L72.1908 12.4422C71.6 12.5482 71.0351 12.1553 70.929 11.5645C70.8229 10.9737 71.2159 10.4088 71.8067 10.3027Z"
            fill="#D2D4D8" />
        <g opacity="0.2">
            <path
                d="M114.136 75.0617L71.6484 61.2637C71.5758 61.2402 71.5157 61.1892 71.4811 61.1218C71.4466 61.0545 71.4406 60.9763 71.4644 60.9046L88.6254 9.27088C88.6756 9.12169 88.8382 9.04047 88.9895 9.089L131.477 22.8871C131.628 22.9367 131.71 23.0974 131.661 23.2469L114.497 74.8783C114.448 75.0269 114.287 75.1086 114.136 75.0617Z"
                fill="#3D3D3D" />
            <path
                d="M110.925 25.4154L104.768 35.9474L93.1178 39.8226C94.8631 44.9483 99.8238 48.3183 105.29 48.0918C110.757 47.8652 115.415 44.0966 116.72 38.8445C118.025 33.5924 115.664 28.1196 110.925 25.4154Z"
                fill="#3D3D3D" />
            <path d="M110.278 23.3786C106.73 21.3524 102.394 21.208 98.7157 22.9937L104.125 33.9043L110.278 23.3786Z"
                fill="#3D3D3D" />
            <path d="M97.3499 24.0309C91.7996 26.7065 89.1273 33.0437 91.1119 38.8238L102.762 34.9486L97.3499 24.0309Z"
                fill="#3D3D3D" />
            <path
                d="M96.901 52.0785L81.6038 47.1097C81.5727 47.1001 81.5468 47.0787 81.5319 47.0501C81.517 47.0215 81.5143 46.9881 81.5245 46.9576L82.0488 45.3787C82.0587 45.3471 82.0813 45.3208 82.1112 45.306C82.1411 45.2912 82.1759 45.2892 82.2074 45.3003L97.5046 50.2683C97.5367 50.278 97.5634 50.3002 97.5784 50.3299C97.5934 50.3595 97.5954 50.394 97.5839 50.4251L97.0596 52.0041C97.0487 52.0348 97.0258 52.06 96.996 52.0739C96.9662 52.0879 96.932 52.0896 96.901 52.0785Z"
                fill="#3D3D3D" />
            <path
                d="M103.774 58.1442L80.4562 50.571C80.425 50.5613 80.3991 50.5396 80.3842 50.5109C80.3693 50.4822 80.3666 50.4488 80.3768 50.4181L80.9011 48.8391C80.9108 48.8074 80.9334 48.7811 80.9634 48.7662C80.9934 48.7514 81.0282 48.7494 81.0597 48.7608L104.378 56.334C104.442 56.3549 104.478 56.4231 104.457 56.4869L103.932 58.0658C103.922 58.0974 103.9 58.1236 103.87 58.1384C103.84 58.1532 103.806 58.1553 103.774 58.1442Z"
                fill="#3D3D3D" />
            <path
                d="M94.7603 59.622L79.1356 54.5457C79.0714 54.5252 79.036 54.4573 79.0562 54.3936L79.5813 52.8147C79.5911 52.7841 79.6129 52.7586 79.6418 52.7439C79.6706 52.7292 79.7042 52.7265 79.7352 52.7363L95.3599 57.8126C95.4245 57.8332 95.46 57.9016 95.4392 57.9655L94.9142 59.5444C94.893 59.6075 94.8244 59.6421 94.7603 59.622Z"
                fill="#3D3D3D" />
            <path
                d="M106.613 57.0617L113.589 59.3276C114.087 59.489 114.359 60.0228 114.197 60.5199C114.197 60.522 114.196 60.524 114.195 60.5261C114.029 61.0265 113.49 61.2988 112.988 61.136L106.012 58.8701C105.515 58.7086 105.243 58.1748 105.404 57.6777C105.405 57.6756 105.406 57.6736 105.406 57.6715C105.573 57.1711 106.112 56.8988 106.613 57.0617Z"
                fill="#3D3D3D" />
            <path
                d="M99.9138 51.0523L114.739 55.8673C115.236 56.0288 115.508 56.5626 115.346 57.0596C115.346 57.0617 115.345 57.0638 115.344 57.0658C115.178 57.5662 114.639 57.8386 114.137 57.6757L99.3126 52.8606C98.8156 52.6992 98.5435 52.1654 98.7049 51.6683C98.7056 51.6662 98.7063 51.6642 98.707 51.6621C98.8733 51.1617 99.4123 50.8894 99.9138 51.0523Z"
                fill="#3D3D3D" />
        </g>
        <g filter="url(#filter3_d_3406_1704)">
            <path
                d="M115.784 69.2859L73.2977 55.4877C73.1468 55.4381 73.0648 55.2772 73.1145 55.1278L90.2773 3.49586C90.3275 3.34667 90.4901 3.26545 90.6413 3.31397L133.127 17.1122C133.278 17.1618 133.36 17.3227 133.31 17.472L116.148 69.104C116.097 69.2532 115.935 69.3344 115.784 69.2859Z"
                fill="black" />
        </g>
        <path
            d="M115.784 69.2859L73.2977 55.4877C73.1468 55.4381 73.0648 55.2772 73.1145 55.1278L90.2773 3.49586C90.3275 3.34667 90.4901 3.26545 90.6413 3.31397L133.127 17.1122C133.278 17.1618 133.36 17.3227 133.31 17.472L116.148 69.104C116.097 69.2532 115.935 69.3344 115.784 69.2859Z"
            fill="white" />
        <path
            d="M112.544 19.7999L106.608 30.5228L95.375 34.469C97.0576 39.6881 101.841 43.1196 107.111 42.889C112.382 42.6584 116.874 38.8211 118.132 33.4733C119.39 28.1256 117.113 22.5531 112.544 19.7999Z"
            fill="#D2D4D8" />
        <path opacity="0.490782"
            d="M111.875 18.271C111.089 17.8169 110.259 17.4446 109.398 17.1602C106.135 16.0826 102.582 16.3313 99.5 17.8531L105.289 29.6999L111.875 18.271Z"
            fill="#6977E9" />
        <path d="M99.4685 18.9749C93.5134 21.6604 90.6459 28.0223 92.7754 33.8249L105.275 29.9348L99.4685 18.9749Z"
            fill="#D2D4D8" />
        <path
            d="M99.6162 46.1929L83.9138 41.3685C83.881 41.3589 83.8538 41.3373 83.8384 41.3085C83.823 41.2798 83.8209 41.2465 83.8324 41.2162L84.3713 39.6829C84.3815 39.6522 84.4047 39.6268 84.4354 39.6124C84.4661 39.598 84.5018 39.596 84.5342 39.6068L100.237 44.4312C100.269 44.4409 100.296 44.4626 100.312 44.4913C100.327 44.5199 100.329 44.5532 100.318 44.5835L99.779 46.1168C99.769 46.1476 99.7459 46.1732 99.7151 46.1876C99.6843 46.202 99.6486 46.2039 99.6162 46.1929Z"
            fill="#D4E8E8" />
        <path
            d="M106.24 52.7933L83.0858 45.4828C83.0541 45.4733 83.0278 45.4518 83.0129 45.4232C82.998 45.3947 82.9959 45.3615 83.0071 45.3314L83.5284 43.8074C83.5383 43.7769 83.5607 43.7516 83.5904 43.7373C83.6201 43.723 83.6546 43.721 83.6859 43.7317L106.84 51.0423C106.871 51.0515 106.897 51.0722 106.912 51.0998C106.926 51.1274 106.929 51.1596 106.919 51.1891L106.398 52.7131C106.39 52.7446 106.367 52.7712 106.337 52.7864C106.307 52.8016 106.272 52.8041 106.24 52.7933Z"
            fill="#D4E8E8" />
        <path
            d="M96.3319 54.443L80.611 49.5876C80.5797 49.5785 80.5536 49.5579 80.5386 49.5306C80.5236 49.5032 80.5209 49.4714 80.5312 49.4421L81.0586 47.9319C81.0684 47.9015 81.0911 47.8763 81.1213 47.8621C81.1515 47.848 81.1865 47.8461 81.2182 47.8569L96.9392 52.7115C97.0042 52.7312 97.04 52.7967 97.019 52.8578L96.4915 54.368C96.4817 54.3983 96.4591 54.4236 96.4289 54.4378C96.3987 54.4519 96.3637 54.4538 96.3319 54.443Z"
            fill="#D4E8E8" />
        <path
            d="M108.651 51.6907L115.584 53.9688C116.087 54.1342 116.361 54.6762 116.196 55.1795C116.031 55.6828 115.489 55.9568 114.985 55.7914L108.052 53.5133C107.549 53.3479 107.275 52.8058 107.44 52.3026C107.606 51.7993 108.148 51.5253 108.651 51.6907Z"
            fill="#D4E8E8" />
        <path
            d="M116.959 51.9688L100.411 46.4351C100.38 46.425 100.354 46.4025 100.339 46.3727C100.324 46.3429 100.321 46.3082 100.331 46.2764L100.86 44.6374C100.881 44.5711 100.951 44.5347 101.016 44.556L117.564 50.0898C117.595 50.0999 117.621 50.1223 117.637 50.1521C117.652 50.1819 117.654 50.2166 117.644 50.2485L117.115 51.8875C117.094 51.9537 117.024 51.9902 116.959 51.9688Z"
            fill="#D4E8E8" />
        <g filter="url(#filter4_d_3406_1704)">
            <path
                d="M116.825 43.3324V93.3397C116.825 94.6457 115.727 95.6999 114.371 95.6999H54.1103C52.7546 95.6999 51.65 94.6457 51.65 93.3397V36.1923C51.65 34.8863 52.7561 33.8249 54.1103 33.8249H67.6475C68.4891 33.8201 69.2758 34.2432 69.7372 34.9488L72.8588 39.8356C73.3173 40.5448 74.1056 40.9699 74.9486 40.9627H114.373C115.727 40.9682 116.825 42.0263 116.825 43.3324Z"
                fill="black" />
        </g>
        <path
            d="M116.825 43.3324V93.3397C116.825 94.6457 115.727 95.6999 114.371 95.6999H54.1103C52.7546 95.6999 51.65 94.6457 51.65 93.3397V36.1923C51.65 34.8863 52.7561 33.8249 54.1103 33.8249H67.6475C68.4891 33.8201 69.2758 34.2432 69.7372 34.9488L72.8588 39.8356C73.3173 40.5448 74.1056 40.9699 74.9486 40.9627H114.373C115.727 40.9682 116.825 42.0263 116.825 43.3324Z"
            fill="url(#paint0_linear_3406_1704)" />
        <path
            d="M116.825 43.3324V93.3397C116.825 94.6457 115.727 95.6999 114.371 95.6999H54.1103C52.7546 95.6999 51.65 94.6457 51.65 93.3397V36.1923C51.65 34.8863 52.7561 33.8249 54.1103 33.8249H67.6475C68.4891 33.8201 69.2758 34.2432 69.7372 34.9488L72.8588 39.8356C73.3173 40.5448 74.1056 40.9699 74.9486 40.9627H114.373C115.727 40.9682 116.825 42.0263 116.825 43.3324Z"
            fill="url(#paint1_linear_3406_1704)" />
        <path
            d="M111.421 42.075H56.2287C55.0669 42.075 54.125 43.0168 54.125 44.1787V92.7712C54.125 93.9331 55.0669 94.875 56.2287 94.875H111.421C112.583 94.875 113.525 93.9331 113.525 92.7712V44.1787C113.525 43.0168 112.583 42.075 111.421 42.075Z"
            fill="#EFEFEF" />
        <path
            d="M111.421 42.8999H56.2287C55.0669 42.8999 54.125 43.8418 54.125 45.0037V93.5962C54.125 94.758 55.0669 95.6999 56.2287 95.6999H111.421C112.583 95.6999 113.525 94.758 113.525 93.5962V45.0037C113.525 43.8418 112.583 42.8999 111.421 42.8999Z"
            fill="white" />
        <path opacity="0.2"
            d="M116.825 44.5499V89.119L116.375 92.9689C116.224 94.2599 115.322 95.3353 114.083 95.6999H54.1103C52.7546 95.6999 51.65 94.6408 51.65 93.3286V52.377H62.1983C63.4889 52.3776 64.6561 51.6049 65.1674 50.4115L66.8345 46.5218C67.3402 45.3256 68.5065 44.5494 69.7973 44.5499H116.825Z"
            fill="#3D3D3D" />
        <path
            d="M117.387 93.6592C117.197 95.2934 115.829 96.5249 114.203 96.5249H54.1916C52.5658 96.5249 51.1973 95.2936 51.0076 93.6592L46.7221 56.8052C46.615 55.8848 46.9019 54.9621 47.5102 54.2695C48.1186 53.577 48.9905 53.1808 49.906 53.1808H63.6266C64.9072 53.1809 66.065 52.4096 66.5714 51.219L68.2234 47.3367C68.7298 46.1462 69.8876 45.3749 71.1682 45.3749H119.392C120.308 45.3743 121.18 45.7702 121.789 46.4628C122.398 47.1554 122.685 48.0785 122.578 48.9993L117.387 93.6592Z"
            fill="url(#paint2_linear_3406_1704)" />
    </g>
    <defs>
        <filter id="filter0_d_3406_1704" x="68.775" y="17.45" width="101.05" height="107.65"
            filterUnits="userSpaceOnUse" color-interpolation-filters="sRGB">
            <feFlood flood-opacity="0" result="BackgroundImageFix" />
            <feColorMatrix in="SourceAlpha" type="matrix" values="0 0 0 0 0 0 0 0 0 0 0 0 0 0 0 0 0 0 127 0"
                result="hardAlpha" />
            <feOffset dy="16" />
            <feGaussianBlur stdDeviation="10" />
            <feColorMatrix type="matrix" values="0 0 0 0 0 0 0 0 0 0 0 0 0 0 0 0 0 0 0.093482 0" />
            <feBlend mode="normal" in2="BackgroundImageFix" result="effect1_dropShadow_3406_1704" />
            <feBlend mode="normal" in="SourceGraphic" in2="effect1_dropShadow_3406_1704" result="shape" />
        </filter>
        <filter id="filter1_d_3406_1704" x="-5.47498" y="12.4999" width="106" height="110.125"
            filterUnits="userSpaceOnUse" color-interpolation-filters="sRGB">
            <feFlood flood-opacity="0" result="BackgroundImageFix" />
            <feColorMatrix in="SourceAlpha" type="matrix" values="0 0 0 0 0 0 0 0 0 0 0 0 0 0 0 0 0 0 127 0"
                result="hardAlpha" />
            <feOffset dy="16" />
            <feGaussianBlur stdDeviation="10" />
            <feColorMatrix type="matrix" values="0 0 0 0 0 0 0 0 0 0 0 0 0 0 0 0 0 0 0.093482 0" />
            <feBlend mode="normal" in2="BackgroundImageFix" result="effect1_dropShadow_3406_1704" />
            <feBlend mode="normal" in="SourceGraphic" in2="effect1_dropShadow_3406_1704" result="shape" />
        </filter>
        <filter id="filter2_d_3406_1704" x="21.75" y="-4.00006" width="94.45" height="102.7"
            filterUnits="userSpaceOnUse" color-interpolation-filters="sRGB">
            <feFlood flood-opacity="0" result="BackgroundImageFix" />
            <feColorMatrix in="SourceAlpha" type="matrix" values="0 0 0 0 0 0 0 0 0 0 0 0 0 0 0 0 0 0 127 0"
                result="hardAlpha" />
            <feOffset dy="16" />
            <feGaussianBlur stdDeviation="10" />
            <feColorMatrix type="matrix" values="0 0 0 0 0 0 0 0 0 0 0 0 0 0 0 0 0 0 0.093482 0" />
            <feBlend mode="normal" in2="BackgroundImageFix" result="effect1_dropShadow_3406_1704" />
            <feBlend mode="normal" in="SourceGraphic" in2="effect1_dropShadow_3406_1704" result="shape" />
        </filter>
        <filter id="filter3_d_3406_1704" x="53.1" y="-0.700073" width="100.225" height="106"
            filterUnits="userSpaceOnUse" color-interpolation-filters="sRGB">
            <feFlood flood-opacity="0" result="BackgroundImageFix" />
            <feColorMatrix in="SourceAlpha" type="matrix" values="0 0 0 0 0 0 0 0 0 0 0 0 0 0 0 0 0 0 127 0"
                result="hardAlpha" />
            <feOffset dy="16" />
            <feGaussianBlur stdDeviation="10" />
            <feColorMatrix type="matrix" values="0 0 0 0 0 0 0 0 0 0 0 0 0 0 0 0 0 0 0.093482 0" />
            <feBlend mode="normal" in2="BackgroundImageFix" result="effect1_dropShadow_3406_1704" />
            <feBlend mode="normal" in="SourceGraphic" in2="effect1_dropShadow_3406_1704" result="shape" />
        </filter>
        <filter id="filter4_d_3406_1704" x="31.65" y="29.8249" width="105.175" height="101.875"
            filterUnits="userSpaceOnUse" color-interpolation-filters="sRGB">
            <feFlood flood-opacity="0" result="BackgroundImageFix" />
            <feColorMatrix in="SourceAlpha" type="matrix" values="0 0 0 0 0 0 0 0 0 0 0 0 0 0 0 0 0 0 127 0"
                result="hardAlpha" />
            <feOffset dy="16" />
            <feGaussianBlur stdDeviation="10" />
            <feColorMatrix type="matrix" values="0 0 0 0 0.411765 0 0 0 0 0.423529 0 0 0 0 0.894118 0 0 0 0.302194 0" />
            <feBlend mode="normal" in2="BackgroundImageFix" result="effect1_dropShadow_3406_1704" />
            <feBlend mode="normal" in="SourceGraphic" in2="effect1_dropShadow_3406_1704" result="shape" />
        </filter>
        <linearGradient id="paint0_linear_3406_1704" x1="84.2375" y1="33.8249" x2="84.2375" y2="95.6999"
            gradientUnits="userSpaceOnUse">
            <stop stop-color="#7A62E4" />
            <stop offset="1" stop-color="#656EE4" />
        </linearGradient>
        <linearGradient id="paint1_linear_3406_1704" x1="55.665" y1="36.8785" x2="108.041" y2="95.3643"
            gradientUnits="userSpaceOnUse">
            <stop stop-color="#798CFB" />
            <stop offset="1" stop-color="#5760D5" />
        </linearGradient>
        <linearGradient id="paint2_linear_3406_1704" x1="51.3757" y1="59.3348" x2="102.313" y2="99.7114"
            gradientUnits="userSpaceOnUse">
            <stop stop-color="#798CFB" />
            <stop offset="1" stop-color="#5760D5" />
        </linearGradient>
        <clipPath id="clip0_3406_1704">
            <rect width="165" height="116.325" fill="white" transform="translate(0.5 -6.10352e-05)" />
        </clipPath>
    </defs>
</svg>
