<svg width="21" height="23" viewBox="0 0 21 23" fill="none" xmlns="http://www.w3.org/2000/svg">
<path d="M4.60179 19.2573C4.60179 20.378 3.5086 20.6166 3.19181 20.6626C2.45111 20.6419 1.85507 20.021 1.85507 19.2573V1.87876H10.0952V0H0.939499C0.434102 0 0.0239258 0.420842 0.0239258 0.939379V19.2573C0.0239258 21.0703 1.46138 22.5451 3.22843 22.5451H16.962C18.7291 22.5451 20.1665 21.0703 20.1665 19.2573V17.8482H4.60179V19.2573Z" fill="white"/>
<path d="M15.5886 11.2725C14.2271 11.2725 12.9654 10.831 11.9263 10.0852V15.9694L15.5886 13.1513L19.2509 15.9694V10.0852C18.2117 10.831 16.95 11.2725 15.5886 11.2725Z" fill="white"/>
<path d="M15.5886 9.39379C18.1169 9.39379 20.1665 7.29092 20.1665 4.6969C20.1665 2.10287 18.1169 0 15.5886 0C13.0603 0 11.0107 2.10287 11.0107 4.6969C11.0107 7.29092 13.0603 9.39379 15.5886 9.39379Z" fill="white"/>
</svg>
