<svg width="23" height="23" viewBox="0 0 23 23" fill="none" xmlns="http://www.w3.org/2000/svg">
<path d="M11.9297 0C5.8714 0 0.942871 5.05668 0.942871 11.2726C0.942871 17.4884 5.8714 22.5451 11.9297 22.5451C17.9881 22.5451 22.9166 17.4884 22.9166 11.2726C22.9166 5.05668 17.9881 0 11.9297 0ZM11.9297 20.6663C9.64081 20.6663 7.55056 19.7937 5.94373 18.3639C5.95105 18.3517 5.96113 18.3414 5.96753 18.3292C7.48006 15.729 6.52878 14.1405 5.82654 13.4247C5.64159 13.2359 5.43009 13.0639 5.21219 12.8911C4.6427 12.4374 4.26549 12.1377 4.26549 11.2726C4.26549 10.8649 4.48705 10.7052 5.58116 10.3219C6.33376 10.0579 7.18616 9.75921 7.73642 9.02931C9.01365 7.33467 7.60916 4.72132 7.31434 4.21406C7.16327 3.95385 6.99939 3.70961 6.82909 3.4757C8.2052 2.52505 9.84773 1.95767 11.613 1.89473C11.8986 2.39166 12.3701 2.81062 12.8334 3.21925C13.2289 3.5687 13.857 3.71524 14.1802 4.12857C14.3652 4.3653 14.2754 4.82183 14.2819 5.12056C14.2947 5.7133 14.6444 6.57284 15.8237 6.57284C15.8759 6.57284 15.9299 6.57096 15.9857 6.5672C16.4417 6.53432 17.8645 6.1999 19.2946 5.71518C20.4153 7.27455 21.0855 9.19277 21.0855 11.2726C21.0855 16.4523 16.9782 20.6663 11.9297 20.6663Z" fill="white"/>
<path d="M15.1471 8.36328C13.7041 8.36328 12.231 9.06688 11.4821 10.1133C10.9794 10.816 10.8329 11.6286 11.0691 12.4017C11.5406 13.9441 11.5864 14.8535 11.2916 15.8727C11.0298 16.7782 11.0041 18.0915 12.4993 18.7171C12.7812 18.8355 13.0907 18.8956 13.4167 18.8956C14.5282 18.8956 15.8438 18.1901 17.0277 16.9586C18.4505 15.4791 19.2873 13.6661 19.2672 12.1067C19.2397 10.0081 17.4296 8.36328 15.1471 8.36328Z" fill="white"/>
</svg>
