<svg width="12" height="12" viewBox="0 0 12 12" fill="none" xmlns="http://www.w3.org/2000/svg">
<g clip-path="url(#clip0_1396_143)">
<path d="M6 0C4.81331 0 3.65328 0.351894 2.66658 1.01118C1.67989 1.67047 0.910851 2.60754 0.456726 3.7039C0.00259972 4.80026 -0.11622 6.00666 0.115291 7.17054C0.346802 8.33443 0.918247 9.40353 1.75736 10.2426C2.59648 11.0818 3.66558 11.6532 4.82946 11.8847C5.99335 12.1162 7.19975 11.9974 8.2961 11.5433C9.39246 11.0892 10.3295 10.3201 10.9888 9.33342C11.6481 8.34673 12 7.18669 12 6C12 4.4087 11.3679 2.88258 10.2426 1.75736C9.11742 0.632141 7.5913 0 6 0V0ZM2.5 4.5C2.5 4.10218 2.65804 3.72064 2.93934 3.43934C3.22065 3.15804 3.60218 3 4 3C4.39783 3 4.77936 3.15804 5.06066 3.43934C5.34197 3.72064 5.5 4.10218 5.5 4.5V5H4.5V4.5C4.5 4.36739 4.44732 4.24021 4.35356 4.14645C4.25979 4.05268 4.13261 4 4 4C3.86739 4 3.74022 4.05268 3.64645 4.14645C3.55268 4.24021 3.5 4.36739 3.5 4.5V5H2.5V4.5ZM9.5 6.5C9.5 7.42826 9.13125 8.3185 8.47488 8.97487C7.8185 9.63125 6.92826 10 6 10C5.07174 10 4.18151 9.63125 3.52513 8.97487C2.86875 8.3185 2.5 7.42826 2.5 6.5V6H3.5V6.5C3.5 7.16304 3.76339 7.79893 4.23224 8.26777C4.70108 8.73661 5.33696 9 6 9C6.66304 9 7.29893 8.73661 7.76777 8.26777C8.23661 7.79893 8.5 7.16304 8.5 6.5V6H9.5V6.5ZM9.5 5H8.5V4.5C8.5 4.36739 8.44732 4.24021 8.35356 4.14645C8.25979 4.05268 8.13261 4 8 4C7.86739 4 7.74022 4.05268 7.64645 4.14645C7.55268 4.24021 7.5 4.36739 7.5 4.5V5H6.5V4.5C6.5 4.10218 6.65804 3.72064 6.93934 3.43934C7.22065 3.15804 7.60218 3 8 3C8.39783 3 8.77936 3.15804 9.06066 3.43934C9.34197 3.72064 9.5 4.10218 9.5 4.5V5Z" fill="white"/>
</g>
<defs>
<clipPath id="clip0_1396_143">
<rect width="12" height="12" fill="white"/>
</clipPath>
</defs>
</svg>
