<svg width="16" height="16" viewBox="0 0 16 16" fill="none" xmlns="http://www.w3.org/2000/svg">
<path d="M15.3905 4.43253L15.3902 4.43204L13.3904 1.09901C13.3903 1.09899 13.3903 1.09898 13.3903 1.09896C13.3844 1.08912 13.376 1.08098 13.366 1.07532L13.6612 0.553765L13.366 1.07532C13.3561 1.06968 13.3448 1.0667 13.3333 1.06667L15.3905 4.43253ZM15.3905 4.43253C15.3967 4.4429 15.4 4.45477 15.4 4.46686L15.4 4.46832C15.4011 4.86747 15.2863 5.25836 15.0695 5.59351C14.8527 5.92866 14.5433 6.19366 14.1788 6.35634C13.8143 6.51901 13.4104 6.57236 13.0161 6.50991C12.6219 6.44745 12.2543 6.27188 11.9579 6.00451L11.5553 5.64129L11.1533 6.00522C10.7762 6.34662 10.2857 6.53568 9.777 6.53568C9.26832 6.53568 8.77779 6.34662 8.40069 6.00522L7.99835 5.64095L7.59569 6.00488C7.21875 6.34556 6.72875 6.53418 6.22067 6.53418C5.71259 6.53418 5.22259 6.34556 4.84565 6.00488L4.44345 5.64136L4.04114 6.00477C3.66316 6.34621 3.17157 6.53464 2.6622 6.53334H2.66067H2.65613C2.10978 6.53179 1.58636 6.31346 1.20084 5.9263L0.775678 6.34966L1.20084 5.9263C0.815157 5.53896 0.599043 5.01434 0.600004 4.46773L0.600004 4.46686C0.600008 4.45477 0.603303 4.4429 0.609538 4.43253L0.609833 4.43204M15.3905 4.43253L0.609833 4.43204M0.609833 4.43204L2.60965 1.09901C2.60967 1.09897 2.60969 1.09894 2.60971 1.09891C2.61563 1.08909 2.62399 1.08097 2.63396 1.07532C2.64394 1.06967 2.65521 1.0667 2.66667 1.06667L0.609833 4.43204ZM2.65534 7.13334H2.66067C3.31917 7.13502 3.95469 6.89141 4.44334 6.45001C4.93057 6.89037 5.56393 7.13418 6.22067 7.13418L2.65534 7.13334ZM2.66678 1.06667H13.3332H2.66678Z" stroke="#596CFF" stroke-width="1.2"/>
<path d="M13.3444 9.0667V9.06675L13.3519 9.06665C13.368 9.06644 13.384 9.06614 13.4 9.06576V15.1334C13.4 15.1511 13.393 15.168 13.3805 15.1805C13.368 15.193 13.351 15.2 13.3333 15.2H9.93333V11.8V11.2H9.33333H6.66667H6.06667V11.8V15.2H2.66667C2.64898 15.2 2.63203 15.193 2.61953 15.1805C2.60702 15.168 2.6 15.1511 2.6 15.1334V9.06583C2.61831 9.06622 2.63662 9.0665 2.65494 9.06667L2.65494 9.06669L2.65967 9.0667C3.27314 9.06772 3.87959 8.94585 4.44353 8.70939C4.54655 8.75257 4.65112 8.79204 4.75703 8.82772C5.32739 9.02149 5.9305 9.10031 6.5315 9.05961C7.03767 9.02534 7.53388 8.90686 7.99988 8.70968C8.10267 8.7527 8.20701 8.79203 8.31267 8.82759C8.88338 9.0211 9.48675 9.0997 10.088 9.05886C10.595 9.02442 11.0921 8.90561 11.5588 8.70795C12.1233 8.94481 12.7303 9.06716 13.3444 9.0667Z" stroke="#596CFF" stroke-width="1.2"/>
</svg>
