<svg width="16" height="17" viewBox="0 0 16 17" fill="none" xmlns="http://www.w3.org/2000/svg">
<g clip-path="url(#clip0_3358_3375)">
<path d="M4.66669 7.69999H4.16669V8.19999V10.2C4.16669 10.5094 4.2896 10.8062 4.5084 11.0249C4.72719 11.2437 5.02393 11.3667 5.33335 11.3667H10.6667C10.9761 11.3667 11.2729 11.2437 11.4916 11.025C11.7104 10.8062 11.8334 10.5094 11.8334 10.2V8.19999V7.69999H11.3334H10H9.50002V8.19999V9.03333H6.50002V8.19999V7.69999H6.00002H4.66669ZM14.7845 15.6512L15.1381 16.0047L14.7845 15.6512C14.7533 15.6824 14.7109 15.7 14.6667 15.7H1.33335C1.28915 15.7 1.24676 15.6824 1.2155 15.6512C1.18425 15.6199 1.16669 15.5775 1.16669 15.5333V6.19999C1.16669 6.15579 1.18425 6.1134 1.2155 6.08214C1.24676 6.05088 1.28915 6.03333 1.33335 6.03333H14.6667C14.7109 6.03333 14.7533 6.05089 14.7845 6.08214C14.8158 6.1134 14.8334 6.15579 14.8334 6.19999V15.5333C14.8334 15.5775 14.8158 15.6199 14.7845 15.6512Z" fill="#20C997" stroke="#20C997"/>
<path d="M3.16669 3.69991V3.36658H12.8334V3.69991H3.16669Z" fill="#20C997" stroke="#20C997"/>
<path d="M11.3334 0.199951H4.66669V1.53328H11.3334V0.199951Z" fill="#20C997"/>
</g>
<defs>
<clipPath id="clip0_3358_3375">
<rect width="16" height="16" fill="white" transform="translate(0 0.199951)"/>
</clipPath>
</defs>
</svg>
